<?xml version="1.0" encoding="UTF-8" standalone="no"?>
<!-- Created with Inkscape (http://www.inkscape.org/) -->

<svg
   width="64"
   height="64"
   viewBox="0 0 64 64"
   version="1.1"
   id="svg1"
   inkscape:version="1.3.2 (091e20e, 2023-11-25, custom)"
   xml:space="preserve"
   sodipodi:docname="bookmarkRepo64.svg"
   inkscape:export-filename="bookmarkRepo64.svg"
   inkscape:export-xdpi="96"
   inkscape:export-ydpi="96"
   xmlns:inkscape="http://www.inkscape.org/namespaces/inkscape"
   xmlns:sodipodi="http://sodipodi.sourceforge.net/DTD/sodipodi-0.dtd"
   xmlns="http://www.w3.org/2000/svg"
   xmlns:svg="http://www.w3.org/2000/svg"><sodipodi:namedview
     id="namedview1"
     pagecolor="#505050"
     bordercolor="#ffffff"
     borderopacity="1"
     inkscape:showpageshadow="false"
     inkscape:pageopacity="0"
     inkscape:pagecheckerboard="1"
     inkscape:deskcolor="#d1d1d1"
     inkscape:document-units="px"
     labelstyle="default"
     inkscape:zoom="4.1373683"
     inkscape:cx="15.347921"
     inkscape:cy="69.488617"
     inkscape:window-width="1920"
     inkscape:window-height="1094"
     inkscape:window-x="-11"
     inkscape:window-y="-11"
     inkscape:window-maximized="1"
     inkscape:current-layer="svg1" /><defs
     id="defs1" /><g
     id="g3"
     transform="matrix(1.4514111,0,0,1.4514111,-364.1674,-272.15099)"><polygon
       style="fill:#ffffff;fill-opacity:1;stroke:#000000;stroke-width:21.9428;stroke-linecap:round;stroke-linejoin:round;stroke-miterlimit:10;stroke-dasharray:none"
       points="436,497 256,397 76,497 76,15 436,15 "
       id="polygon3"
       transform="matrix(0.08750018,0,0,0.08750018,250.55322,187.15536)" /><polygon
       style="fill:none;stroke:#000000;stroke-width:30;stroke-linecap:round;stroke-linejoin:round;stroke-miterlimit:10"
       points="76,15 436,15 436,497 256,397 76,497 "
       id="polygon1"
       transform="matrix(0.064,0,0,0.064,256.56926,191.89139)" /><polygon
       style="fill:none;stroke:#000000;stroke-width:30;stroke-linecap:round;stroke-linejoin:round;stroke-miterlimit:10"
       points="136,184.185 218.918,172.136 256,97 293.082,172.136 376,184.185 316,242.671 330.164,325.254 256,286.263 181.836,325.254 196,242.671 "
       id="polygon2"
       transform="matrix(0.064,0,0,0.064,256.56926,191.89139)" /></g></svg>
