<?xml version="1.0" encoding="UTF-8" standalone="no"?>
<svg
   width="64"
   height="64"
   version="1.1"
   id="svg50"
   sodipodi:docname="firefox64.svg"
   inkscape:export-filename="firefox64.svg"
   inkscape:export-xdpi="96"
   inkscape:export-ydpi="96"
   inkscape:version="1.3.2 (091e20e, 2023-11-25, custom)"
   xmlns:inkscape="http://www.inkscape.org/namespaces/inkscape"
   xmlns:sodipodi="http://sodipodi.sourceforge.net/DTD/sodipodi-0.dtd"
   xmlns="http://www.w3.org/2000/svg"
   xmlns:svg="http://www.w3.org/2000/svg">
  <sodipodi:namedview
     id="namedview1"
     pagecolor="#ffffff"
     bordercolor="#000000"
     borderopacity="0.25"
     inkscape:showpageshadow="2"
     inkscape:pageopacity="0.0"
     inkscape:pagecheckerboard="0"
     inkscape:deskcolor="#d1d1d1"
     inkscape:zoom="5.6016115"
     inkscape:cx="31.50879"
     inkscape:cy="54.180837"
     inkscape:window-width="1920"
     inkscape:window-height="1094"
     inkscape:window-x="-11"
     inkscape:window-y="-11"
     inkscape:window-maximized="1"
     inkscape:current-layer="svg50" />
  <defs
     id="defs39">
    <radialGradient
       id="g"
       cx="240.61284"
       cy="36.806652"
       r="170.02094"
       gradientTransform="matrix(0.12880391,0,0,0.1292617,-1.032128,-1.6877444e-4)"
       fx="240.61284"
       fy="36.806652"
       gradientUnits="userSpaceOnUse">
      <stop
         offset=".1"
         stop-color="#ffe226"
         id="stop1" />
      <stop
         offset=".79"
         stop-color="#ff7139"
         id="stop2" />
    </radialGradient>
    <radialGradient
       id="c"
       cx="226.56297"
       cy="290.17783"
       r="554.14581"
       gradientTransform="matrix(0.14306326,0,0,0.11637797,-1.032128,-1.6877444e-4)"
       fx="226.56297"
       fy="290.17783"
       gradientUnits="userSpaceOnUse">
      <stop
         offset=".3"
         stop-color="#960e18"
         id="stop3" />
      <stop
         offset=".35"
         stop-color="#b11927"
         stop-opacity=".74"
         id="stop4" />
      <stop
         offset=".43"
         stop-color="#db293d"
         stop-opacity=".34"
         id="stop5" />
      <stop
         offset=".5"
         stop-color="#f5334b"
         stop-opacity=".09"
         id="stop6" />
      <stop
         offset=".53"
         stop-color="#ff3750"
         stop-opacity="0"
         id="stop7" />
    </radialGradient>
    <radialGradient
       id="d"
       cx="395.44366"
       cy="-17.973478"
       r="210.2099"
       gradientTransform="matrix(0.09902902,0,0,0.16812659,-1.032128,-1.6877444e-4)"
       fx="395.44366"
       fy="-17.973478"
       gradientUnits="userSpaceOnUse">
      <stop
         offset=".13"
         stop-color="#fff44f"
         id="stop8" />
      <stop
         offset=".53"
         stop-color="#ff980e"
         id="stop9" />
    </radialGradient>
    <radialGradient
       id="e"
       cx="206.27052"
       cy="373.24011"
       r="223.4966"
       gradientTransform="matrix(0.12325139,0,0,0.13508498,-1.032128,-1.6877444e-4)"
       fx="206.27052"
       fy="373.24011"
       gradientUnits="userSpaceOnUse">
      <stop
         offset=".35"
         stop-color="#3a8ee6"
         id="stop10" />
      <stop
         offset=".67"
         stop-color="#9059ff"
         id="stop11" />
      <stop
         offset="1"
         stop-color="#c139e6"
         id="stop12" />
    </radialGradient>
    <radialGradient
       id="f"
       cx="271.62091"
       cy="200.9019"
       r="131.86298"
       gradientTransform="matrix(0.12325139,0,0,0.13508498,-1.032128,-1.6877444e-4)"
       fx="271.62091"
       fy="200.9019"
       gradientUnits="userSpaceOnUse">
      <stop
         offset=".21"
         stop-color="#9059ff"
         stop-opacity="0"
         id="stop13" />
      <stop
         offset=".97"
         stop-color="#6e008b"
         stop-opacity=".6"
         id="stop14" />
    </radialGradient>
    <radialGradient
       id="b"
       cx="392.80673"
       cy="61.159756"
       r="554.14581"
       gradientTransform="matrix(0.14306326,0,0,0.11637797,-1.032128,-1.6877444e-4)"
       fx="392.80673"
       fy="61.159756"
       gradientUnits="userSpaceOnUse">
      <stop
         offset=".13"
         stop-color="#ffbd4f"
         id="stop15" />
      <stop
         offset=".28"
         stop-color="#ff980e"
         id="stop16" />
      <stop
         offset=".47"
         stop-color="#ff3750"
         id="stop17" />
      <stop
         offset=".78"
         stop-color="#eb0878"
         id="stop18" />
      <stop
         offset=".86"
         stop-color="#e50080"
         id="stop19" />
    </radialGradient>
    <radialGradient
       id="h"
       cx="362.07501"
       cy="-81.709213"
       r="742.3869"
       gradientTransform="matrix(0.14083264,0,0,0.11822125,-1.032128,-1.6877444e-4)"
       fx="362.07501"
       fy="-81.709213"
       gradientUnits="userSpaceOnUse">
      <stop
         offset=".11"
         stop-color="#fff44f"
         id="stop20" />
      <stop
         offset=".46"
         stop-color="#ff980e"
         id="stop21" />
      <stop
         offset=".72"
         stop-color="#ff3647"
         id="stop22" />
      <stop
         offset=".9"
         stop-color="#e31587"
         id="stop23" />
    </radialGradient>
    <radialGradient
       id="i"
       cx="475.58807"
       cy="-41.588268"
       r="779.90863"
       gradientTransform="matrix(0.08879817,0,0,0.18749723,-1.032128,-1.6877444e-4)"
       fx="475.58807"
       fy="-41.588268"
       gradientUnits="userSpaceOnUse">
      <stop
         offset="0"
         stop-color="#fff44f"
         id="stop24" />
      <stop
         offset=".3"
         stop-color="#ff980e"
         id="stop25" />
      <stop
         offset=".57"
         stop-color="#ff3647"
         id="stop26" />
      <stop
         offset=".74"
         stop-color="#e31587"
         id="stop27" />
    </radialGradient>
    <radialGradient
       id="j"
       cx="239.79736"
       cy="99.006172"
       r="461.1138"
       gradientTransform="matrix(0.13018112,0,0,0.12789421,-1.032128,-1.6877444e-4)"
       fx="239.79736"
       fy="99.006172"
       gradientUnits="userSpaceOnUse">
      <stop
         offset=".14"
         stop-color="#fff44f"
         id="stop28" />
      <stop
         offset=".48"
         stop-color="#ff980e"
         id="stop29" />
      <stop
         offset=".66"
         stop-color="#ff3647"
         id="stop30" />
      <stop
         offset=".9"
         stop-color="#e31587"
         id="stop31" />
    </radialGradient>
    <radialGradient
       id="k"
       cx="343.03802"
       cy="132.0125"
       r="528.89331"
       gradientTransform="matrix(0.13642071,0,0,0.12204461,-1.032128,-1.6877444e-4)"
       fx="343.03802"
       fy="132.0125"
       gradientUnits="userSpaceOnUse">
      <stop
         offset=".09"
         stop-color="#fff44f"
         id="stop32" />
      <stop
         offset=".63"
         stop-color="#ff980e"
         id="stop33" />
    </radialGradient>
    <linearGradient
       id="a"
       x1="441.98419"
       y1="75.63131"
       x2="62.126282"
       y2="454.26938"
       gradientTransform="matrix(0.12693502,0,0,0.13116484,-1.032128,-1.6877444e-4)"
       gradientUnits="userSpaceOnUse">
      <stop
         offset=".05"
         stop-color="#fff44f"
         id="stop34" />
      <stop
         offset=".37"
         stop-color="#ff980e"
         id="stop35" />
      <stop
         offset=".53"
         stop-color="#ff3647"
         id="stop36" />
      <stop
         offset=".7"
         stop-color="#e31587"
         id="stop37" />
    </linearGradient>
    <linearGradient
       id="l"
       x1="406.61136"
       y1="68.311989"
       x2="104.09252"
       y2="409.86551"
       gradientTransform="matrix(0.1269345,0,0,0.13116538,-1.032128,-1.6877444e-4)"
       gradientUnits="userSpaceOnUse">
      <stop
         offset=".17"
         stop-color="#fff44f"
         stop-opacity=".8"
         id="stop38" />
      <stop
         offset=".6"
         stop-color="#fff44f"
         stop-opacity="0"
         id="stop39" />
    </linearGradient>
  </defs>
  <path
     d="m 60.737195,21.464791 c -1.347745,-3.241815 -4.07743,-6.741695 -6.220919,-7.847891 1.74452,3.420009 2.7542,6.850727 3.140008,9.411121 0,0.005 0.0019,0.01755 0.0061,0.05161 C 54.155888,14.339869 48.210195,10.815731 43.355085,3.1424201 43.109923,2.7544191 42.864116,2.3653858 42.624631,1.9553202 a 9.5117669,9.5117669 0 0 1 -0.34142,-0.64155 5.6387245,5.6387245 0 0 1 -0.463614,-1.2265839 0.08077441,0.08077441 0 0 0 -0.07045,-0.08309699 0.10554866,0.10554866 0 0 0 -0.05819,0 c -0.0044,0.00154839 -0.01084,0.00658066 -0.01548,0.00838712 -0.0068,0.0027097 -0.01548,0.0089033 -0.02271,0.01290326 0.0035,-0.0046452 0.01071,-0.01509682 0.0129,-0.01754844 C 33.875963,4.5699077 31.233376,13.009285 30.990536,17.231619 a 15.516041,15.516041 0 0 0 -8.534474,3.288783 9.207121,9.207121 0 0 0 -0.803228,-0.606454 14.366231,14.366231 0 0 1 -0.08697,-7.578342 c -3.185556,1.450455 -5.66324,3.743236 -7.464535,5.767757 h -0.01432 c -1.229293,-1.557036 -1.142584,-6.693308 -1.072519,-7.765698 -0.01471,-0.06645 -0.917035,0.468389 -1.035228,0.549034 a 22.590124,22.590124 0 0 0 -3.03046,2.596136 27.158523,27.158523 0 0 0 -2.89575,3.472654 c 0,0.0015 -9.03e-4,0.0034 -0.0014,0.0049 0,-0.0017 9.03e-4,-0.0034 0.0014,-0.0049 a 26.172714,26.172714 0 0 0 -4.160914,9.394218 c -0.01484,0.06723 -0.02736,0.136904 -0.04181,0.204646 -0.05832,0.273033 -0.268388,1.638714 -0.305162,1.935489 -0.0028,0.02284 -0.0041,0.04477 -0.0068,0.06761 a 29.556981,29.556981 0 0 0 -0.503227,4.278334 c 0,0.0529 -0.0032,0.10529 -0.0032,0.158323 5.16e-4,17.124303 13.884424,31.005888 31.010146,31.005888 15.33746,0 28.072332,-11.133965 30.5655,-25.758778 0.05252,-0.396904 0.09458,-0.795873 0.140903,-1.196261 0.616389,-5.317433 -0.06839,-10.90648 -2.011231,-15.58017 z M 24.995811,45.735049 c 0.145033,0.06929 0.281291,0.145032 0.430195,0.211484 0.0062,0.0043 0.01471,0.009 0.02103,0.0129 A 16.282752,16.282752 0 0 1 24.995809,45.735046 Z M 32.099443,27.034354 Z M 57.6648,23.087247 57.6607,23.057187 c 0.0015,0.01097 0.0035,0.02245 0.0052,0.03342 z"
     fill="url(#a)"
     id="path39"
     style="fill:url(#a);stroke-width:0.129033" />
  <path
     d="m 60.737195,21.464791 c -1.347745,-3.241815 -4.07743,-6.741695 -6.220919,-7.847891 1.74452,3.420009 2.7542,6.850727 3.140008,9.411121 0,-0.0075 0.0014,0.0062 0.0046,0.02916 0.0015,0.01097 0.0035,0.02245 0.0052,0.03342 2.925815,7.931634 1.331875,15.997203 -0.965034,20.925861 C 53.147627,51.64229 44.544249,59.457794 31.078279,59.076632 16.529208,58.664631 3.711884,47.869377 1.319233,33.730243 c -0.43600197,-2.229683 0,-3.361815 0.219355,-5.172143 -0.267226,1.395617 -0.369033,1.798715 -0.503227,4.278334 0,0.0529 -0.0032,0.105291 -0.0032,0.158323 C 1.032419,50.118415 14.916327,64 32.042049,64 c 15.33746,0 28.072332,-11.133965 30.5655,-25.758778 0.05252,-0.396904 0.09458,-0.795873 0.140903,-1.196261 0.616389,-5.317433 -0.06839,-10.90648 -2.011231,-15.58017 z"
     fill="url(#b)"
     id="path40"
     style="fill:url(#b);stroke-width:0.129033" />
  <path
     d="m 60.737195,21.464791 c -1.347745,-3.241815 -4.07743,-6.741695 -6.220919,-7.847891 1.74452,3.420009 2.7542,6.850727 3.140008,9.411121 0,-0.0075 0.0014,0.0062 0.0046,0.02916 0.0015,0.01097 0.0035,0.02245 0.0052,0.03342 2.925815,7.931634 1.331875,15.997203 -0.965034,20.925861 C 53.147627,51.64229 44.544249,59.457794 31.078279,59.076632 16.529208,58.664631 3.711884,47.869377 1.319233,33.730243 c -0.43600197,-2.229683 0,-3.361815 0.219355,-5.172143 -0.267226,1.395617 -0.369033,1.798715 -0.503227,4.278334 0,0.0529 -0.0032,0.105291 -0.0032,0.158323 C 1.032419,50.118415 14.916327,64 32.042049,64 c 15.33746,0 28.072332,-11.133965 30.5655,-25.758778 0.05252,-0.396904 0.09458,-0.795873 0.140903,-1.196261 0.616389,-5.317433 -0.06839,-10.90648 -2.011231,-15.58017 z"
     fill="url(#c)"
     id="path41"
     style="fill:url(#c);stroke-width:0.129033" />
  <path
     d="m 45.667607,25.109575 c 0.06761,0.04748 0.129033,0.09471 0.192646,0.141936 A 16.865335,16.865335 0 0 0 42.981536,21.495114 C 33.342155,11.856895 40.453916,0.59673603 41.653274,0.02486356 c 0.0035,-0.0046452 0.01071,-0.01509682 0.0129,-0.01754844 C 33.876479,4.5693916 31.233892,13.008769 30.991053,17.231103 c 0.361291,-0.02503 0.72155,-0.05535 1.089293,-0.05535 5.813047,0 10.876028,3.196137 13.587261,7.933827 z"
     fill="url(#d)"
     id="path42"
     style="fill:url(#d);stroke-width:0.129033" />
  <path
     d="m 32.09983,27.033967 c -0.05071,0.771357 -2.776008,3.431364 -3.729042,3.431364 -8.817959,0 -10.249318,5.333562 -10.249318,5.333562 0.390582,4.491625 3.517558,8.190345 7.304665,10.147511 0.172774,0.08929 0.347613,0.169936 0.522582,0.249678 a 17.1314,17.1314 0 0 0 0.910841,0.372388 13.773327,13.773327 0 0 0 4.034978,0.778196 c 15.455525,0.724905 18.449855,-18.476694 7.296148,-24.052709 2.856395,-0.496775 5.821306,0.652002 7.477052,1.815102 -2.711233,-4.737303 -7.774214,-7.93344 -13.587132,-7.93344 -0.367743,0 -0.727873,0.03032 -1.089293,0.05536 a 15.516041,15.516041 0 0 0 -8.534474,3.288783 c 0.472775,0.400001 1.006454,0.934712 2.130844,2.042327 2.103489,2.073167 7.500665,4.220012 7.512149,4.471883 z"
     fill="url(#e)"
     id="path43"
     style="fill:url(#e);stroke-width:0.129033" />
  <path
     d="m 32.09983,27.033967 c -0.05071,0.771357 -2.776008,3.431364 -3.729042,3.431364 -8.817959,0 -10.249318,5.333562 -10.249318,5.333562 0.390582,4.491625 3.517558,8.190345 7.304665,10.147511 0.172774,0.08929 0.347613,0.169936 0.522582,0.249678 a 17.1314,17.1314 0 0 0 0.910841,0.372388 13.773327,13.773327 0 0 0 4.034978,0.778196 c 15.455525,0.724905 18.449855,-18.476694 7.296148,-24.052709 2.856395,-0.496775 5.821306,0.652002 7.477052,1.815102 -2.711233,-4.737303 -7.774214,-7.93344 -13.587132,-7.93344 -0.367743,0 -0.727873,0.03032 -1.089293,0.05536 a 15.516041,15.516041 0 0 0 -8.534474,3.288783 c 0.472775,0.400001 1.006454,0.934712 2.130844,2.042327 2.103489,2.073167 7.500665,4.220012 7.512149,4.471883 z"
     fill="url(#f)"
     id="path44"
     style="fill:url(#f);stroke-width:0.129033" />
  <path
     d="m 21.010381,19.488399 a 31.489373,31.489373 0 0 1 0.642711,0.425808 14.366231,14.366231 0 0 1 -0.08697,-7.578343 c -3.185557,1.450455 -5.663241,3.743236 -7.464536,5.767757 0.149032,-0.0043 4.64698,-0.08516 6.908792,1.384778 z"
     fill="url(#g)"
     id="path45"
     style="fill:url(#g);stroke-width:0.129033" />
  <path
     d="m 1.319233,33.730243 c 2.392651,14.139134 15.209975,24.934388 29.759046,25.346389 13.46597,0.381162 22.069348,-7.434858 25.622777,-15.060169 2.29678,-4.929045 3.890849,-12.993582 0.965034,-20.925861 l -10e-4,-0.0034 -0.0041,-0.03006 c -0.0032,-0.02297 -0.0052,-0.03665 -0.0046,-0.02916 0,0.005 0.0019,0.01755 0.0061,0.05161 1.099874,7.182084 -2.553555,14.139908 -8.264666,18.844437 l -0.01716,0.04039 c -11.128416,9.061056 -21.777347,5.466853 -23.933482,3.995623 a 18.59463,18.59463 0 0 1 -0.451614,-0.224903 c -6.488017,-3.100525 -9.168282,-9.011379 -8.593571,-14.080553 -5.478337,0 -7.346342,-4.620529 -7.346342,-4.620529 0,0 4.918594,-3.506977 11.401062,-0.456904 6.003887,2.82491 11.642353,0.457162 11.642999,0.456904 -0.01148,-0.251871 -5.40866,-2.398716 -7.512665,-4.471753 -1.124261,-1.107616 -1.658069,-1.641682 -2.130845,-2.042328 a 9.207121,9.207121 0 0 0 -0.803228,-0.606454 36.507064,36.507064 0 0 0 -0.642711,-0.425807 c -2.261683,-1.46994 -6.75976,-1.389036 -6.908792,-1.385165 h -0.01432 c -1.229293,-1.557036 -1.142584,-6.693308 -1.072519,-7.765698 -0.01471,-0.06645 -0.917035,0.468388 -1.035228,0.549034 a 22.590124,22.590124 0 0 0 -3.03046,2.596136 27.158523,27.158523 0 0 0 -2.89575,3.473428 c 0,0.0015 -9.03e-4,0.0034 -0.0014,0.0049 0,-0.0017 9.03e-4,-0.0034 0.0014,-0.0049 a 26.172714,26.172714 0 0 0 -4.160914,9.394218 c -0.01484,0.06723 -1.11613197,4.882852 -0.572904,7.380536 z"
     fill="url(#h)"
     id="path46"
     style="fill:url(#h);stroke-width:0.129033" />
  <path
     d="m 42.981536,21.494985 a 16.865335,16.865335 0 0 1 2.878717,3.756397 c 0.17071,0.128258 0.330194,0.25613 0.46555,0.380904 7.029953,6.477436 3.346589,15.638751 3.071879,16.291656 5.711111,-4.704529 9.36454,-11.662353 8.264666,-18.844437 C 54.155888,14.339869 48.210195,10.815731 43.355085,3.1424201 43.109923,2.7544191 42.864116,2.3653858 42.624631,1.9553202 a 9.5117669,9.5117669 0 0 1 -0.34142,-0.64155 5.6387245,5.6387245 0 0 1 -0.463614,-1.2265839 0.08077441,0.08077441 0 0 0 -0.07045,-0.08309699 0.10554866,0.10554866 0 0 0 -0.05819,0 c -0.0044,0.00154839 -0.01084,0.00658066 -0.01548,0.00838712 -0.0068,0.0027097 -0.01548,0.0089033 -0.02271,0.01290326 C 40.453916,0.59673603 33.342155,11.856895 42.981536,21.494985 Z"
     fill="url(#i)"
     id="path47"
     style="fill:url(#i);stroke-width:0.129033" />
  <path
     d="m 46.325803,25.632286 c -0.135356,-0.124774 -0.29484,-0.252646 -0.46555,-0.380904 -0.0631,-0.04748 -0.125033,-0.09471 -0.192646,-0.141936 -1.655746,-1.1631 -4.620657,-2.311877 -7.477052,-1.815102 11.153707,5.576015 8.159377,24.777614 -7.296148,24.052709 a 13.773327,13.773327 0 0 1 -4.034978,-0.778196 17.356175,17.356175 0 0 1 -0.910841,-0.372388 c -0.174969,-0.07974 -0.349808,-0.160387 -0.522582,-0.249678 0.0062,0.0043 0.01471,0.009 0.02103,0.0129 2.156135,1.470972 12.805066,5.065433 23.933482,-3.995623 l 0.01716,-0.04039 c 0.27471,-0.652131 3.958074,-9.813832 -3.071879,-16.291398 z"
     fill="url(#j)"
     id="path48"
     style="fill:url(#j);stroke-width:0.129033" />
  <path
     d="m 18.121341,35.799022 c 0,0 1.431359,-5.333562 10.249318,-5.333562 0.953292,0 3.67859,-2.660007 3.729042,-3.431364 0.05045,-0.771357 -5.638725,2.368006 -11.642999,-0.456904 -6.482468,-3.050073 -11.401062,0.456904 -11.401062,0.456904 0,0 1.868005,4.620529 7.346342,4.620529 -0.574582,5.069174 2.105683,10.980674 8.593571,14.080553 0.145033,0.06929 0.281291,0.145032 0.430195,0.211484 -3.786849,-1.957295 -6.913825,-5.656015 -7.304407,-10.14764 z"
     fill="url(#k)"
     id="path49"
     style="fill:url(#k);stroke-width:0.129033" />
  <path
     d="m 60.737195,21.464791 c -1.347745,-3.241815 -4.07743,-6.741695 -6.220919,-7.847891 1.74452,3.420009 2.7542,6.850727 3.140008,9.411121 0,0.005 0.0019,0.01755 0.0061,0.05161 C 54.155888,14.339869 48.210195,10.815731 43.355085,3.1424201 43.109923,2.7544191 42.864116,2.3653858 42.624631,1.9553202 a 9.5117669,9.5117669 0 0 1 -0.34142,-0.64155 5.6387245,5.6387245 0 0 1 -0.463614,-1.2265839 0.08077441,0.08077441 0 0 0 -0.07045,-0.08309699 0.10554866,0.10554866 0 0 0 -0.05819,0 c -0.0044,0.00154839 -0.01084,0.00658066 -0.01548,0.00838712 -0.0068,0.0027097 -0.01548,0.0089033 -0.02271,0.01290326 0.0035,-0.0046452 0.01071,-0.01509682 0.0129,-0.01754844 C 33.875963,4.5699077 31.233376,13.009285 30.990536,17.231619 c 0.361292,-0.02503 0.721551,-0.05535 1.089294,-0.05535 5.813305,0 10.876286,3.196137 13.587132,7.93344 -1.655746,-1.1631 -4.620657,-2.311877 -7.477052,-1.815101 11.153707,5.576014 8.159376,24.777613 -7.296148,24.052708 A 13.773327,13.773327 0 0 1 26.858784,46.56912 17.356175,17.356175 0 0 1 25.947942,46.196732 c -0.174968,-0.07974 -0.349807,-0.160387 -0.522582,-0.249678 0.0062,0.0043 0.01471,0.009 0.02103,0.0129 a 18.59463,18.59463 0 0 1 -0.451614,-0.224903 c 0.145032,0.06929 0.281291,0.145032 0.430194,0.211484 -3.787106,-1.957166 -6.914082,-5.655886 -7.304664,-10.147511 0,0 1.431359,-5.333562 10.249317,-5.333562 0.953293,0 3.678591,-2.660007 3.729042,-3.431364 -0.01148,-0.251871 -5.408659,-2.398716 -7.512665,-4.471753 -1.124261,-1.107616 -1.658068,-1.641682 -2.130844,-2.042328 a 9.207121,9.207121 0 0 0 -0.803228,-0.606454 14.366231,14.366231 0 0 1 -0.08697,-7.578342 c -3.185557,1.450455 -5.66324,3.743236 -7.464536,5.767757 h -0.01432 c -1.229294,-1.557036 -1.142584,-6.693308 -1.072519,-7.765698 -0.01471,-0.06645 -0.917035,0.468388 -1.035229,0.549034 A 22.590124,22.590124 0 0 0 8.947895,13.48245 27.158523,27.158523 0 0 0 6.053048,16.955491 c 0,0.0015 -9.03e-4,0.0034 -0.0014,0.0049 0,-0.0017 9.03e-4,-0.0034 0.0014,-0.0049 a 26.172714,26.172714 0 0 0 -4.160914,9.394218 c -0.01484,0.06723 -0.02736,0.136904 -0.04181,0.204646 -0.05832,0.273033 -0.320775,1.658456 -0.357421,1.955618 -0.0028,0.02284 0.0027,-0.02271 0,0 a 36.072998,36.072998 0 0 0 -0.457291,4.326463 c 0,0.0529 -0.0032,0.105291 -0.0032,0.158323 0,17.123658 13.883908,31.005243 31.00963,31.005243 15.33746,0 28.072332,-11.133965 30.5655,-25.758778 0.05252,-0.396904 0.09458,-0.795873 0.140903,-1.196261 0.616389,-5.317433 -0.06839,-10.90648 -2.011231,-15.58017 z m -3.076266,1.592392 c 0.0015,0.01097 0.0035,0.02245 0.0052,0.03342 l -10e-4,-0.0034 z"
     fill="url(#l)"
     id="path50"
     style="fill:url(#l);stroke-width:0.129033" />
</svg>
