<?xml version="1.0" encoding="UTF-8" standalone="no"?>
<svg
   version="1.1"
   width="64"
   height="64"
   x="0"
   y="0"
   viewBox="0 0 7.9999999 8"
   xml:space="preserve"
   class=""
   id="svg2"
   sodipodi:docname="skullcrossbones64.svg"
   inkscape:version="1.3.2 (091e20e, 2023-11-25, custom)"
   xmlns:inkscape="http://www.inkscape.org/namespaces/inkscape"
   xmlns:sodipodi="http://sodipodi.sourceforge.net/DTD/sodipodi-0.dtd"
   xmlns="http://www.w3.org/2000/svg"
   xmlns:svg="http://www.w3.org/2000/svg"><defs
     id="defs2" /><sodipodi:namedview
     id="namedview2"
     pagecolor="#ffffff"
     bordercolor="#000000"
     borderopacity="0.25"
     inkscape:showpageshadow="2"
     inkscape:pageopacity="0.0"
     inkscape:pagecheckerboard="0"
     inkscape:deskcolor="#d1d1d1"
     inkscape:zoom="5.90625"
     inkscape:cx="25.73545"
     inkscape:cy="38.010582"
     inkscape:window-width="1920"
     inkscape:window-height="1094"
     inkscape:window-x="-11"
     inkscape:window-y="-11"
     inkscape:window-maximized="1"
     inkscape:current-layer="svg2" /><g
     id="g2"
     transform="matrix(0.1478233,0,0,0.1478233,-0.73034562,-0.72844589)"><path
       d="M 44.37,22.746 C 44.418,21 45.449,20.351 45.654,18.897 A 12.933,12.933 0 0 0 40.889,7.443 13.466,13.466 0 0 0 32,4.969 13.466,13.466 0 0 0 23.111,7.443 12.933,12.933 0 0 0 18.346,18.897 c 0.205,1.454 1.236,2.103 1.283,3.85 0.06,2.23 -2.036,2.87 -1.833,4.856 a 3.682,3.682 0 0 0 1.925,2.84 c 1.528,0.727 3.818,-1.352 4.799,3.896 a 2.211,2.211 0 0 0 1.093,1.542 12.127,12.127 0 0 0 6.387,1.435 12.127,12.127 0 0 0 6.387,-1.435 2.211,2.211 0 0 0 1.093,-1.542 c 0.98,-5.248 3.271,-3.17 4.8,-3.895 a 3.682,3.682 0 0 0 1.924,-2.841 c 0.203,-1.985 -1.893,-2.627 -1.833,-4.857 z m -17.212,3.826 c -0.7,0.128 -2.904,0.434 -4.121,-0.742 -1.405,-1.358 -1.02,-4.3 0.05,-5.273 1.009,-0.916 2.764,-0.681 3.891,-0.512 a 3.773,3.773 0 0 1 3.072,1.74 c 0.589,1.05 -0.166,2.573 -0.23,2.714 a 3.408,3.408 0 0 1 -2.662,2.073 z m 7.03,6.377 c -0.491,0.3 -1.468,0.008 -2.192,-0.704 -0.723,0.712 -1.693,1.004 -2.185,0.704 -0.591,-0.36 -0.559,-1.49 -0.333,-2.037 a 18.585,18.585 0 0 1 1.676,-3.171 c 0.252,-0.355 0.493,-0.32 0.846,-0.07 0.353,-0.25 0.594,-0.285 0.846,0.07 a 18.585,18.585 0 0 1 1.676,3.171 c 0.226,0.547 0.258,1.677 -0.333,2.037 z m 6.775,-7.12 c -1.217,1.177 -3.422,0.87 -4.12,0.743 A 3.408,3.408 0 0 1 34.18,24.5 c -0.064,-0.141 -0.819,-1.664 -0.23,-2.713 a 3.773,3.773 0 0 1 3.072,-1.74 c 1.127,-0.17 2.882,-0.405 3.89,0.511 1.07,0.973 1.456,3.915 0.051,5.273 z M 25.4,47.89 c 1.55,0.72 2.94,1.37 4.2,1.95 -7.08,3.27 -7.9,3.68 -8.61,5.46 a 11.265,11.265 0 0 1 -1.46,2.97 2.624,2.624 0 0 1 -4.36,-1.04 5.131,5.131 0 0 1 0.02,-2.33 0.376,0.376 0 0 0 -0.21,-0.49 c -3.18,-1.25 -2.67,-4.81 -0.26,-5.44 1.47,-0.38 3.09,0.73 4.64,0.81 1.07,0.05 3.33,-0.74 6.04,-1.89 z m 23.54,-3.31 c -2.1,0.14 -2.55,-1 -4.7,-0.91 a 7.334,7.334 0 0 0 -2.68,0.6 c -1.06,0.5 -2.06,0.98 -3.01,1.42 -1.36,-0.6 -2.82,-1.27 -4.23,-1.93 1.77,-0.86 3.41,-1.67 4.75,-2.31 a 13.804,13.804 0 0 0 3.2,-2.15 c 1.15,-1.5 0.73,-3.43 2.58,-4.51 1.34,-0.79 4.64,-0.38 3.85,3.64 a 0.75,0.75 0 0 0 0.48,0.87 3.487,3.487 0 0 1 2.02,2.15 2.762,2.762 0 0 1 -2.26,3.13 z"
       fill="#ffffff"
       opacity="1"
       data-original="#000000"
       class=""
       id="path1" /><path
       d="m 49.02,54.41 a 0.376,0.376 0 0 0 -0.21,0.49 5.131,5.131 0 0 1 0.02,2.33 2.624,2.624 0 0 1 -4.36,1.04 11.265,11.265 0 0 1 -1.46,-2.97 C 42.017,52.806 40.77,52.977 22.44,44.27 a 7.334,7.334 0 0 0 -2.68,-0.6 c -2.15,-0.09 -2.6,1.05 -4.7,0.91 A 2.762,2.762 0 0 1 12.8,41.45 3.487,3.487 0 0 1 14.82,39.3 0.75,0.75 0 0 0 15.3,38.43 c -0.79,-4.02 2.51,-4.43 3.85,-3.64 1.85,1.08 1.43,3.01 2.58,4.51 1.153,1.537 19.946,10.61 22.91,10.48 1.55,-0.08 3.17,-1.19 4.64,-0.81 2.41,0.63 2.92,4.19 -0.26,5.44 z"
       fill="#ffffff"
       opacity="1"
       data-original="#000000"
       class=""
       id="path2" /></g></svg>
