<?xml version="1.0" encoding="UTF-8" standalone="no"?>
<!-- Generator: Adobe Illustrator 26.0.1, SVG Export Plug-In . SVG Version: 6.00 Build 0)  -->

<svg
   version="1.1"
   id="Layer_1"
   x="0px"
   y="0px"
   viewBox="0 0 64 64"
   xml:space="preserve"
   sodipodi:docname="ythistory64.svg"
   inkscape:version="1.3.2 (091e20e, 2023-11-25, custom)"
   width="64"
   height="64"
   inkscape:export-filename="ythistory64.png"
   inkscape:export-xdpi="96"
   inkscape:export-ydpi="96"
   xmlns:inkscape="http://www.inkscape.org/namespaces/inkscape"
   xmlns:sodipodi="http://sodipodi.sourceforge.net/DTD/sodipodi-0.dtd"
   xmlns="http://www.w3.org/2000/svg"
   xmlns:svg="http://www.w3.org/2000/svg"><defs
   id="defs93" /><sodipodi:namedview
   id="namedview93"
   pagecolor="#ffffff"
   bordercolor="#000000"
   borderopacity="0.25"
   inkscape:showpageshadow="2"
   inkscape:pageopacity="0.0"
   inkscape:pagecheckerboard="0"
   inkscape:deskcolor="#d1d1d1"
   inkscape:zoom="4.056"
   inkscape:cx="42.776134"
   inkscape:cy="19.107495"
   inkscape:window-width="1920"
   inkscape:window-height="1094"
   inkscape:window-x="-11"
   inkscape:window-y="-11"
   inkscape:window-maximized="1"
   inkscape:current-layer="Layer_1" />


<g
   id="g93"
   transform="matrix(0.13008127,0,0,0.13008127,-33.040626,-33.040668)">
	<path
   style="fill:#fc0000"
   d="m 436.046,671.875 c -67.146,0 -110.609,-4.861 -129.344,-9.723 -15.715,-4.075 -31.26,-17.096 -38.631,-32.363 -6.178,-12.795 -9.886,-34.952 -12.779,-76.361 -1.721,-24.656 -1.723,-81.484 -0.005,-106.225 3.679,-52.895 8.237,-72.955 19.934,-87.673 10.069,-12.672 23.364,-20.131 41.28,-23.162 64.937,-10.99 302.057,-10.99 367.002,0 17.913,3.031 31.211,10.493 41.28,23.162 11.694,14.72 16.25,34.761 19.934,87.673 1.715,24.651 1.71,81.495 -0.011,106.222 -4.372,62.847 -10.222,82.006 -29.788,97.554 -9.1,7.229 -17.932,10.908 -32.096,13.363 -36.441,6.317 -150.848,7.532 -246.766,7.532 h -0.01 z"
   id="path92" />
	<path
   style="fill:#ffffff"
   d="m 621.677,426.979 -127.213,73.332 127.121,73.332 z m -143.201,0 -126.61,73.332 126.626,73.332 z"
   id="path93" />
</g>
</svg>
